<?xml version="1.0"?>
<svg width="753.0000000000001" height="379" xmlns="http://www.w3.org/2000/svg" xmlns:svg="http://www.w3.org/2000/svg">
 <g class="layer">
  <title>Layer 1</title>
  <g fill="#efa500" fill-rule="evenodd" id="g6">
   <path d="m101,65.56c-0.58,-3.25 -1.74,-3.62 -3.48,-1.08c-9.15,11.92 -18.56,17.5 -28.88,0.43c-2.17,-1.82 -3.83,-1.09 -5.42,0c-12.02,8.31 -24.03,16.23 -36.05,22.8c-42.76,23.02 -19.77,76.93 12.81,59.71c3.98,-2.53 7.96,-5.07 11.95,-7.6c6.69,-3.4 12.84,-2.82 17.8,6.52c-0.14,13.6 -0.29,27.21 -0.43,40.82c-2.18,-0.73 -3.84,-1.96 -5.43,-3.26c-25.63,-12.51 -45.88,-5.08 -61.67,18.89c-4.38,7.8 -1.7,11.45 3.48,5.86c2.67,-3.69 5.64,-6.22 8.9,-7.6c10.86,-2.39 21.71,3.48 32.57,14.99c6.66,-4.83 14.63,-10.85 17.8,-13.9c27.41,-9.07 38.39,-18.95 39.74,-31.49c6,-35.57 -11.23,-62.46 -36.48,-47.55c-3.33,2.46 -6.66,4.92 -9.99,7.39c-12.91,6.47 -15.65,1.75 -16.93,-4.56c0.21,-10.93 0.43,-21.86 0.65,-32.79c6.29,1.37 12.59,4.77 18.89,8.47c15.8,3.64 37.31,-12.04 40.17,-36.05z" fill="#000000" id="path8"/>
   <path d="m196.62,62.23c-2.02,-5.63 -3.16,-2.43 -4.48,-0.99c-7.21,13.65 -13.84,6.33 -20.38,-3.98c-1.33,-1.66 -2.65,-1.66 -3.98,0c-10.57,9.66 -21.41,18.93 -33.31,26.6c-11.54,7.58 -19.04,16.78 -20.64,28.34l-0.24,47.98c1.92,22.96 11.66,41.42 30.82,54.44c1.16,0.63 2.32,1.96 3.48,-0.25c4.81,-4.64 9.62,-9.28 14.42,-13.92c9.62,-5.71 18.82,-11.68 25.11,-19.39c2.49,-7.04 -0.83,-8.45 -4.72,-4.22c-4.48,9.15 -8.95,10.56 -13.43,8.45c-11.14,-6.49 -17.94,-15.15 -21.13,-25.61l-0.99,-66.12c0.91,-6.29 3.89,-5.83 7.45,-3.49c12.18,10.95 37.13,8.51 42.02,-27.84z" fill="#000000" id="path10"/>
   <path d="m206.03,176.16c-1.97,2.72 -3.93,5.44 -5.9,8.16c-1.01,1.13 -1.01,2.27 0,3.4c7.64,6.96 15.27,13.91 22.91,20.86c1.75,2.47 3.5,2.61 5.26,0c3.37,-8.69 8.81,-15.17 18.77,-16.78c3.47,-1.72 5.86,-3.96 0.68,-9.75c-3.28,-2.44 -5.55,-5.39 -6.8,-8.84l0,-78.24c10.13,-15.34 24.82,-11 29.25,14.74l0,90.94c-2.84,40.04 -18.75,50.77 -38.32,53.29c-4.31,0.91 -4.31,1.81 0,2.72c38.84,-0.48 67.72,-18.54 72.11,-79.82l0,-74.84c-3.09,-15.55 -11.76,-27.38 -22.45,-37.87c-3.43,-2.28 -6.6,-2.28 -9.52,0c-13.13,12.75 -23.74,20.6 -31.3,21.7l0,-66.37c-0.33,-8.59 5.41,-13.12 17.24,-13.61l0,4.76c-27.38,32.08 28.64,34.54 16.33,1.59c-10.98,-25.33 -62.71,-7.11 -67.58,17.46c-0.23,48.83 -0.46,97.67 -0.68,146.5z" fill="#000000" id="path12"/>
   <path d="m350.5,170.61c-2.16,-4.08 -3.6,-8.17 0,-12.26c48.27,-36.36 50.35,-73.44 21.73,-98.97c-2.29,-1.93 -4.59,-1.58 -6.88,1.08c-2.37,3.08 -5.6,5.88 -9.68,8.39c-21.95,13.55 -37.37,28.04 -43.25,43.89l0,54.43c2.94,17.04 10.54,32.45 28.4,44.32c3.45,2.01 6.89,2.01 10.33,0c11.91,-9.75 23.81,-19.5 35.71,-29.26c1.8,-4.16 0.58,-6.02 -3.01,-3.01c-11.41,12.81 -22.51,8.99 -33.35,-8.61zm-4.95,-19.14l0,-58.52c1.94,-6.03 5.89,-6.03 11.84,0c15.26,23.86 11.78,42.61 -4.52,57.87c-2.73,1.36 -5.16,1.58 -7.32,0.65z" fill="#000000" id="path14"/>
   <path d="m605.88,170.61c-2.16,-4.08 -3.6,-8.17 0,-12.26c48.26,-36.36 50.34,-73.44 21.73,-98.97c-2.3,-1.93 -4.59,-1.58 -6.89,1.08c-2.37,3.08 -5.59,5.88 -9.68,8.39c-21.95,13.55 -37.36,28.04 -43.25,43.89l0,54.43c2.94,17.04 10.54,32.45 28.4,44.32c3.45,2.01 6.89,2.01 10.33,0c11.91,-9.75 23.81,-19.5 35.72,-29.26c1.79,-4.16 0.57,-6.02 -3.02,-3.01c-11.41,12.81 -22.51,8.99 -33.34,-8.61zm-4.95,-19.14l0,-58.52c1.93,-6.03 5.88,-6.03 11.83,0c15.26,23.86 11.78,42.61 -4.52,57.87c-2.72,1.36 -5.16,1.58 -7.31,0.65z" fill="#000000" id="path16"/>
   <path d="m481.55,63.32c-0.84,-5.93 -2.92,-6.46 -4.84,-2.31c-2.62,10.08 -13.08,10.08 -19.61,-3.46c-1.54,-2.08 -3.08,-2 -4.62,0.23c-11.25,10.57 -22.13,19.73 -32.76,25.38c-14.27,10.31 -19.66,20.61 -21,30.92l0,50.76c0.86,19.12 12.75,34.96 30.23,49.15c1.46,1.23 2.92,1.23 4.38,0c7.77,-8.75 16.54,-16.25 26.77,-21.92c5.38,-4 10.39,-8 12.69,-12c1.77,-7.81 -2.87,-4.14 -5.54,-2.77c-4.42,8.66 -8.42,10.12 -12.23,8.31c-14.5,-7.39 -19.96,-16.14 -22.15,-25.38l0,-67.84c0.08,-4.15 2.31,-4.92 6.69,-2.31c14.58,13.13 39.09,0.98 41.99,-26.76z" fill="#000000" id="path18"/>
   <path d="m502.67,82.48c-4.36,-1.04 -8.71,-2.07 -13.06,-3.11l0.93,-13.06l13.69,0c3.81,-34.44 19.25,-54.75 46.33,-60.95l0,4.67c-7.58,3.15 -10.58,11.44 -11.51,22.08l0,27.36c0.1,3.63 2.28,6.43 6.53,8.4l7.16,0c5.41,1.75 5.71,6.42 5.28,11.5c-5.81,-0.52 -11.51,-0.63 -16.48,2.18l0,94.84c2.74,10.54 10.62,15.62 18.03,8.71c2.1,-1.02 7.13,-4.91 0.31,5.6c-8.5,7.89 -17.01,15.78 -25.52,23.67c-2.91,2.5 -6.23,2.5 -9.97,0c-6.23,-7.16 -12.46,-14.33 -18.69,-21.49c-3.01,2.91 -6.02,5.81 -9.03,8.72l-4.36,0c3.42,-4.98 6.85,-9.97 10.28,-14.95c0.02,-34.72 0.05,-69.45 0.08,-104.17z" fill="#000000" id="path20"/>
   <path d="m674.95,176.41l0,-76.62c-2.64,-9.68 -7.33,-13.8 -16.56,-5.69c-4.2,1.98 -5.28,-0.99 -0.99,-5.93c3.87,-4.45 8.73,-8.24 14.58,-11.37c3.96,-4.12 7.91,-8.24 11.87,-12.36c2.63,-2.73 5.51,-4.55 10.13,0c3.63,5.69 7.25,11.37 10.88,17.06c3.21,5.6 6.42,5.6 9.64,0c2.88,-4.62 5.76,-9.23 8.65,-13.84c1.81,-2.49 3.7,-4.14 6.18,0c5.75,9.39 13.37,9.14 23.73,-5.2c-0.54,34.49 -17.84,42.24 -42.76,37.82l0,70.7c3.29,4.78 6.83,9.47 12.11,13.59l8.65,0l8.65,-8.65c3.54,-2.64 5.93,-1.65 2.72,2.97c-12.94,12.27 -25.87,24.55 -38.81,36.83c-11.95,-7.83 -20.93,-17.64 -26.94,-29.42c-1.16,-0.99 -2.31,-0.99 -3.47,0c-3.29,2.72 -6.59,5.44 -9.88,8.16c-3.46,1.98 -5.02,0.66 -2.47,-2.47c4.7,-5.19 9.39,-10.38 14.09,-15.58z" fill="#000000" id="path22"/>
  </g>
  <g fill="#1b1918" fill-rule="evenodd" id="g24">
   <path d="m491.15,282.3c-0.29,-1.63 -0.86,-1.81 -1.73,-0.55c-4.56,5.95 -9.26,8.73 -14.4,0.22c-1.08,-0.9 -1.91,-0.54 -2.71,0c-5.99,4.14 -11.98,8.09 -17.97,11.37c-21.32,11.48 -9.85,38.36 6.39,29.77c1.99,-1.26 3.97,-2.52 5.96,-3.79c3.33,-1.69 6.4,-1.41 8.87,3.25l-0.21,20.35c-1.09,-0.36 -1.92,-0.97 -2.71,-1.62c-12.78,-6.24 -22.88,-2.53 -30.75,9.42c-2.18,3.89 -0.85,5.71 1.73,2.92c1.34,-1.84 2.82,-3.1 4.44,-3.79c5.42,-1.19 10.83,1.73 16.24,7.47c3.33,-2.4 7.3,-5.4 8.88,-6.93c13.67,-4.52 19.14,-9.44 19.81,-15.69c2.99,-17.74 -5.6,-31.15 -18.18,-23.71c-1.66,1.22 -3.32,2.45 -4.99,3.68c-6.43,3.22 -7.8,0.87 -8.44,-2.28l0.33,-16.34c3.13,0.68 6.27,2.38 9.41,4.22c7.88,1.82 18.61,-6.01 20.03,-17.97z" id="path26"/>
   <path d="m690.98,337.44c-0.98,1.36 -1.96,2.71 -2.94,4.07c-0.5,0.56 -0.5,1.13 0,1.7c3.81,3.46 7.61,6.93 11.42,10.4c0.87,1.22 1.75,1.3 2.62,0c1.69,-4.34 4.4,-7.57 9.37,-8.37c1.72,-0.86 2.92,-1.97 0.33,-4.86c-1.63,-1.22 -2.76,-2.69 -3.39,-4.41l0,-39.01c5.05,-7.65 12.38,-5.49 14.59,7.35l0,45.34c-1.42,19.97 -9.35,25.32 -19.11,26.57c-2.15,0.45 -2.15,0.91 0,1.36c19.37,-0.24 33.77,-9.25 35.96,-39.8l0,-37.32c-1.54,-7.75 -5.87,-13.65 -11.2,-18.88c-1.71,-1.13 -3.29,-1.13 -4.75,0c-6.54,6.36 -11.83,10.27 -15.6,10.82l0,-33.09c-0.17,-4.28 2.7,-6.55 8.59,-6.79l0,2.38c-13.65,15.99 14.28,17.22 8.14,0.79c-5.47,-12.63 -31.26,-3.55 -33.69,8.71c-0.11,24.34 -0.23,48.69 -0.34,73.04z" id="path28"/>
   <path d="m517.5,334.68c-1.08,-2.04 -1.8,-4.08 0,-6.12c24.06,-18.13 25.1,-36.62 10.83,-49.35c-1.14,-0.96 -2.29,-0.78 -3.43,0.54c-1.18,1.54 -2.79,2.93 -4.83,4.18c-10.94,6.76 -18.63,13.99 -21.56,21.89l0,27.14c1.47,8.49 5.26,16.18 14.16,22.1c1.72,1 3.43,1 5.15,0c5.94,-4.87 11.87,-9.73 17.81,-14.59c0.89,-2.08 0.28,-3.01 -1.5,-1.5c-5.69,6.38 -11.23,4.48 -16.63,-4.29zm-2.47,-9.55l0,-29.18c0.97,-3 2.93,-3 5.9,0c7.61,11.9 5.87,21.25 -2.25,28.86c-1.36,0.68 -2.58,0.78 -3.65,0.32z" id="path30"/>
   <path d="m419.22,334.68c-1.08,-2.04 -1.8,-4.08 0,-6.12c24.06,-18.13 25.1,-36.62 10.83,-49.35c-1.14,-0.96 -2.29,-0.78 -3.43,0.54c-1.18,1.54 -2.79,2.93 -4.83,4.18c-10.94,6.76 -18.63,13.99 -21.56,21.89l0,27.14c1.46,8.49 5.26,16.18 14.16,22.1c1.72,1 3.43,1 5.15,0c5.94,-4.87 11.87,-9.73 17.81,-14.59c0.89,-2.08 0.28,-3.01 -1.51,-1.5c-5.69,6.38 -11.22,4.48 -16.62,-4.29zm-2.47,-9.55l0,-29.18c0.97,-3 2.93,-3 5.9,0c7.61,11.9 5.87,21.25 -2.25,28.86c-1.36,0.68 -2.58,0.78 -3.65,0.32z" id="path32"/>
   <path d="m686.06,281.18c-0.42,-2.96 -1.46,-3.22 -2.41,-1.15c-1.31,5.02 -6.52,5.02 -9.78,-1.73c-0.77,-1.04 -1.54,-1 -2.3,0.12c-5.61,5.27 -11.04,9.83 -16.34,12.65c-7.12,5.14 -9.8,10.28 -10.47,15.42l0,25.31c0.43,9.53 6.36,17.43 15.07,24.5c0.73,0.62 1.46,0.62 2.19,0c3.87,-4.36 8.24,-8.1 13.34,-10.93c2.69,-1.99 5.18,-3.99 6.33,-5.98c0.88,-3.9 -1.43,-2.06 -2.76,-1.38c-2.21,4.32 -4.2,5.04 -6.1,4.14c-7.23,-3.68 -9.95,-8.05 -11.04,-12.65l0,-33.83c0.04,-2.07 1.15,-2.45 3.33,-1.15c7.27,6.55 19.49,0.49 20.94,-13.34z" id="path34"/>
   <path d="m176.06,290.73c-2.17,-0.51 -4.34,-1.03 -6.51,-1.55c0.15,-2.17 0.31,-4.34 0.46,-6.51l6.83,0c1.9,-17.17 9.6,-27.3 23.1,-30.39l0,2.33c-3.78,1.57 -5.28,5.7 -5.74,11l0,13.65c0.05,1.81 1.14,3.2 3.26,4.18l3.57,0c2.69,0.88 2.84,3.21 2.63,5.74c-2.9,-0.26 -5.74,-0.31 -8.22,1.09l0,47.29c1.37,5.25 5.3,7.78 8.99,4.34c1.05,-0.51 3.56,-2.45 0.16,2.79c-4.24,3.93 -8.48,7.87 -12.73,11.8c-1.45,1.25 -3.1,1.25 -4.97,0c-3.1,-3.57 -6.21,-7.14 -9.32,-10.71l-4.5,4.35l-2.17,0c1.7,-2.49 3.41,-4.98 5.12,-7.46c0.01,-17.31 0.03,-34.63 0.04,-51.94z" id="path36"/>
   <path d="m360.76,337.57l0,-38.21c-1.32,-4.83 -3.66,-6.88 -8.26,-2.83c-2.09,0.98 -2.63,-0.5 -0.49,-2.96c1.93,-2.22 4.35,-4.11 7.27,-5.67c1.97,-2.05 3.94,-4.11 5.92,-6.16c1.31,-1.36 2.75,-2.27 5.05,0c1.81,2.83 3.61,5.67 5.42,8.5c1.6,2.79 3.21,2.79 4.81,0c1.44,-2.3 2.87,-4.6 4.31,-6.9c0.9,-1.24 1.85,-2.06 3.08,0c2.87,4.68 6.67,4.56 11.83,-2.59c-0.26,17.2 -8.89,21.06 -21.32,18.86l0,35.25c1.64,2.38 3.41,4.72 6.04,6.77l4.32,0l4.31,-4.31c1.77,-1.31 2.96,-0.82 1.35,1.48c-6.45,6.12 -12.9,12.24 -19.34,18.36c-5.96,-3.9 -10.44,-8.79 -13.44,-14.66c-0.58,-0.5 -1.15,-0.5 -1.73,0c-1.64,1.35 -3.28,2.71 -4.92,4.06c-1.73,0.99 -2.51,0.33 -1.24,-1.23c2.35,-2.59 4.69,-5.17 7.03,-7.76z" id="path38"/>
   <path d="m604.8,337.57l0,-38.21c-1.31,-4.83 -3.65,-6.88 -8.26,-2.83c-2.09,0.98 -2.62,-0.5 -0.49,-2.96c1.93,-2.22 4.36,-4.11 7.27,-5.67l5.92,-6.16c1.31,-1.36 2.75,-2.27 5.05,0c1.81,2.83 3.62,5.67 5.42,8.5c1.61,2.79 3.21,2.79 4.81,0c1.44,-2.3 2.88,-4.6 4.31,-6.9c0.91,-1.24 1.85,-2.06 3.09,0c2.86,4.68 6.66,4.56 11.83,-2.59c-0.27,17.2 -8.9,21.06 -21.32,18.86l0,35.25c1.64,2.38 3.4,4.72 6.04,6.77l4.31,0c1.44,-1.43 2.87,-2.87 4.31,-4.31c1.77,-1.31 2.96,-0.82 1.36,1.48l-19.35,18.36c-5.96,-3.9 -10.44,-8.79 -13.44,-14.66c-0.57,-0.5 -1.15,-0.5 -1.73,0c-1.64,1.35 -3.28,2.71 -4.92,4.06c-1.73,0.99 -2.51,0.33 -1.23,-1.23c2.34,-2.59 4.68,-5.17 7.02,-7.76z" id="path40"/>
   <path d="m276.71,337.57l0,-38.21c-1.32,-4.83 -3.66,-6.88 -8.26,-2.83c-2.1,0.98 -2.63,-0.5 -0.49,-2.96c1.93,-2.22 4.35,-4.11 7.27,-5.67c1.97,-2.05 3.94,-4.11 5.91,-6.16c1.32,-1.36 2.76,-2.27 5.06,0c1.81,2.83 3.61,5.67 5.42,8.5c1.6,2.79 3.2,2.79 4.81,0c1.43,-2.3 2.87,-4.6 4.31,-6.9c0.9,-1.24 1.85,-2.06 3.08,0c2.87,4.68 6.67,4.56 11.83,-2.59c-0.26,17.2 -8.89,21.06 -21.32,18.86l0,35.25c1.64,2.38 3.41,4.72 6.04,6.77l4.31,0c1.44,-1.43 2.88,-2.87 4.32,-4.31c1.76,-1.31 2.96,-0.82 1.35,1.48l-19.35,18.36c-5.95,-3.9 -10.43,-8.79 -13.43,-14.66c-0.58,-0.5 -1.15,-0.5 -1.73,0c-1.64,1.35 -3.28,2.71 -4.93,4.06c-1.72,0.99 -2.5,0.33 -1.23,-1.23c2.34,-2.59 4.69,-5.17 7.03,-7.76z" id="path42"/>
   <path d="m66.5,285.85c-1.92,2.73 -3.85,5.46 -5.77,8.19l-0.15,48.96c4.96,13.17 3.88,22.71 -3.1,28.92c-9.93,7.74 -21.7,8.49 -33.54,6.07c-26.81,-19.68 22.49,-26.18 5.08,-3.1c1.56,5.47 17.77,3.51 19.02,-7.34l0,-10.44c-2.06,-4.46 -3.24,-9.14 -3.8,-13.97c-6.47,2.2 -12.47,5.32 -17.05,11.29c-1.18,0.75 -2.36,0.75 -3.54,0c-4.7,-3.98 -8.34,-8.26 -10.42,-12.98l0,-35.71c2.53,-6.47 7.34,-12.19 15.51,-16.78c3.51,-2.4 6.87,-5.41 10,-9.32c1.13,-0.94 2.45,-0.94 3.95,0c5.78,4.1 11.55,8.19 17.33,12.28l5.07,-6.63c1.04,-0.94 1.51,-0.75 1.41,0.56zm-37.2,8.04l0,41.21c3.73,8.83 8.38,10.78 14.37,2.68l0,-32.46c-3.38,-8.04 -7.98,-12.41 -14.37,-11.43z" id="path44"/>
   <path d="m151.91,253.86a8.72,8.72 0 0 1 8.72,8.72a8.72,8.72 0 1 1 -8.72,-8.72z" id="path46"/>
   <path d="m75.59,341.85l0,-43.65c-0.85,-3.98 -2.55,-5.85 -5.76,-3.95c-2.17,0.72 -2.77,0.27 -1.8,-1.36c4.74,-4.26 9.48,-8.52 14.23,-12.78c0.9,-0.98 1.8,-0.98 2.71,0c3.29,4.89 6,10.16 8.13,15.83l0,41.73c2.68,7.26 6.84,8.77 14.23,-2.38l0,-40.03c-0.22,-2.87 -2.51,-2.98 -5.08,-2.71c-2.38,1.57 -2.79,0.2 -1.25,-1.47c4.22,-3.66 8.44,-7.31 12.65,-10.97c1.09,-0.78 2.18,-0.78 3.28,0c2.82,3.43 5.64,6.86 8.47,10.29l4.74,-4.41c0.91,-0.2 2.23,-1.13 1.47,1.58c-2.37,2.57 -4.75,5.13 -7.12,7.69l0,43.09c0.72,4.03 2.77,5.61 7.8,1.81c0.87,-0.62 1.68,-0.46 1.01,1.13c-4.06,4.44 -8.13,8.89 -12.19,13.34c-2.16,1.96 -4.12,1.96 -5.88,0c-3.28,-4.3 -6.55,-8.59 -9.82,-12.89l-16.38,13.68c-1.69,1.57 -3.39,1.57 -5.08,0c-2.6,-3.39 -5.2,-6.78 -7.79,-10.18c-1.25,1.32 -2.49,2.64 -3.73,3.96c-1.74,0.76 -2.3,0.35 -1.69,-1.24l4.85,-6.11z" id="path48"/>
   <path d="m142.59,297.38l0,41.72c0.13,6.26 3.37,10.96 8.03,14.95c1.74,1.3 3.49,1.3 5.23,0c3.81,-3.69 7.62,-7.37 11.43,-11.06c0.37,-1.14 0.08,-1.46 -0.85,-0.98c-2.96,2.05 -5.31,1.97 -6.32,-2.79l0,-44.88c1.11,-2.22 2.89,-4.45 4.98,-6.68c0.49,-1.87 0,-2.27 -1.46,-1.22l-2.31,2.07c-0.93,1.14 -1.86,0.57 -2.79,-0.25c-1.83,-2.79 -3.65,-5.59 -5.48,-8.39c-2.35,-2 -4.7,-1.56 -7.05,0c-4.26,4.42 -8.51,8.84 -12.77,13.26c-0.85,1.38 0.41,2.07 1.95,0.97c3.93,-4.56 7.54,-2.21 7.41,3.28z" id="path50"/>
   <path d="m223.87,354.7c1.08,0.86 2.16,0.86 3.24,0c5.09,-4.35 10.17,-8.71 15.25,-13.06c2.67,4.05 5.35,8.1 8.02,12.15c1.46,1.17 2.97,1.95 4.78,0l12.15,-15.51c1.03,-1.68 0.52,-1.81 -1.55,-0.39c-3.86,1.62 -6.53,0.98 -6.59,-4.65l0,-37.1c1.46,-2.07 2.93,-4.13 4.39,-6.2c0.86,-1.98 -0.26,-2.84 -1.42,-1.42c-1.51,2.32 -3.19,2.75 -5.04,1.29c-4.01,-3.4 -8.01,-6.81 -12.02,-10.21c-2.89,-2.29 -5.3,-1.73 -7.5,0.13c-2.5,4.18 -6.03,7.32 -10.6,9.43c-8.52,5.13 -14.31,11.25 -15.25,19.13l0,29.48c0.77,6.68 4.82,12.32 12.14,16.93zm4.92,-61.66l0,39.94c0.56,11.51 14,12.76 14.35,0.65l0,-26.89c-3.7,-10.75 -11.13,-15.54 -14.35,-13.7z" id="path52"/>
   <path d="m553.95,354.7c1.08,0.86 2.16,0.86 3.24,0c5.09,-4.35 10.17,-8.71 15.26,-13.06l8.01,12.15c1.46,1.17 2.97,1.95 4.78,0l12.15,-15.51c1.04,-1.68 0.52,-1.81 -1.55,-0.39c-3.86,1.62 -6.53,0.98 -6.59,-4.65l0,-37.1c1.46,-2.07 2.93,-4.13 4.39,-6.2c0.87,-1.98 -0.25,-2.84 -1.42,-1.42c-1.51,2.32 -3.19,2.75 -5.04,1.29c-4.01,-3.4 -8.01,-6.81 -12.02,-10.21c-2.89,-2.29 -5.3,-1.73 -7.5,0.13c-2.5,4.18 -6.03,7.32 -10.6,9.43c-8.52,5.13 -14.31,11.25 -15.25,19.13l0,29.48c0.77,6.68 4.82,12.32 12.14,16.93zm4.92,-61.66l0,39.94c0.56,11.51 14.01,12.76 14.35,0.65l0,-26.89c-3.69,-10.75 -11.13,-15.54 -14.35,-13.7z" id="path54"/>
  </g>
 </g>
</svg>