<svg xmlns="http://www.w3.org/2000/svg" viewBox="0 0 64 64" role="img" aria-label="Book icon">
  <path fill="#d4c5a9" d="M12 10c0-2.2 1.8-4 4-4h30c3.3 0 6 2.7 6 6v40c0 2.2-1.8 4-4 4H18c-3.3 0-6-2.7-6-6V10z"/>
  <path fill="#1c1a14" d="M18 10h26c1.1 0 2 .9 2 2v36c0 1.1-.9 2-2 2H18c-1.1 0-2-.9-2-2V12c0-1.1.9-2 2-2z"/>
  <path fill="#d4c5a9" d="M22 16h18c1.1 0 2 .9 2 2s-.9 2-2 2H22c-1.1 0-2-.9-2-2s.9-2 2-2zm0 8h18c1.1 0 2 .9 2 2s-.9 2-2 2H22c-1.1 0-2-.9-2-2s.9-2 2-2zm0 8h18c1.1 0 2 .9 2 2s-.9 2-2 2H22c-1.1 0-2-.9-2-2s.9-2 2-2z"/>
</svg>
