<svg xmlns="http://www.w3.org/2000/svg" viewBox="0 0 200 500" fill="#f5a623">
  <!-- Acoustic Dreadnought Silhouette -->

  <!-- Headstock (slotted classical style) -->
  <path d="M80 0 L80 25 Q80 35 85 40 L85 90 L115 90 L115 40 Q120 35 120 25 L120 0 Z"/>

  <!-- Headstock slots -->
  <rect x="82" y="15" width="12" height="60" rx="2" fill="#1a1a2e" opacity="0.5"/>
  <rect x="106" y="15" width="12" height="60" rx="2" fill="#1a1a2e" opacity="0.5"/>

  <!-- Tuning pegs -->
  <circle cx="75" cy="30" r="6"/>
  <circle cx="75" cy="50" r="6"/>
  <circle cx="75" cy="70" r="6"/>
  <circle cx="125" cy="30" r="6"/>
  <circle cx="125" cy="50" r="6"/>
  <circle cx="125" cy="70" r="6"/>

  <!-- Neck -->
  <rect x="90" y="90" width="20" height="130" rx="2"/>

  <!-- Frets -->
  <g fill="#1a1a2e" opacity="0.3">
    <rect x="90" y="105" width="20" height="1"/>
    <rect x="90" y="125" width="20" height="1"/>
    <rect x="90" y="145" width="20" height="1"/>
    <rect x="90" y="165" width="20" height="1"/>
    <rect x="90" y="185" width="20" height="1"/>
    <rect x="90" y="205" width="20" height="1"/>
  </g>

  <!-- Body - Dreadnought shape -->
  <path d="M100 220
           Q45 228 25 280 Q10 335 12 395 Q15 455 40 485 Q70 510 100 515 Q130 510 160 485 Q185 455 188 395 Q190 335 175 280 Q155 228 100 220 Z"/>

  <!-- Waist curve left -->
  <path d="M25 330 Q18 340 18 360 Q18 380 25 390" fill="none" stroke="#f5a623" stroke-width="3"/>

  <!-- Waist curve right -->
  <path d="M175 330 Q182 340 182 360 Q182 380 175 390" fill="none" stroke="#f5a623" stroke-width="3"/>

  <!-- Soundhole -->
  <circle cx="100" cy="350" r="35" fill="#1a1a2e" opacity="0.7"/>

  <!-- Rosette -->
  <circle cx="100" cy="350" r="40" fill="none" stroke="#1a1a2e" stroke-width="4" opacity="0.3"/>
  <circle cx="100" cy="350" r="45" fill="none" stroke="#1a1a2e" stroke-width="2" opacity="0.2"/>

  <!-- Bridge -->
  <rect x="65" y="425" width="70" height="18" rx="4" fill="#1a1a2e" opacity="0.6"/>

  <!-- Saddle -->
  <rect x="75" y="428" width="50" height="4" rx="1" fill="#1a1a2e" opacity="0.8"/>

  <!-- Bridge pins -->
  <g fill="#1a1a2e" opacity="0.5">
    <circle cx="80" cy="438" r="3"/>
    <circle cx="90" cy="438" r="3"/>
    <circle cx="100" cy="438" r="3"/>
    <circle cx="110" cy="438" r="3"/>
    <circle cx="120" cy="438" r="3"/>
    <circle cx="130" cy="438" r="3"/>
  </g>

  <!-- Pickguard -->
  <path d="M55 360 Q50 380 52 410 Q55 430 70 440 L80 435 Q90 420 88 390 Q86 365 80 350 L65 345 Q58 350 55 360 Z" fill="#1a1a2e" opacity="0.25"/>
</svg>
