<svg xmlns="http://www.w3.org/2000/svg" viewBox="0 0 200 500" fill="#f5a623">
  <!-- ES-335 Semi-Hollow Guitar Silhouette -->

  <!-- Headstock -->
  <path d="M85 0 L85 15 Q75 18 72 30 L72 60 Q72 65 78 68 L78 75 Q70 78 68 85 L68 95 Q68 100 75 102 L75 108 Q68 110 66 118 L66 128 Q66 135 80 138 L80 145
           L120 145 L120 138 Q134 135 134 128 L134 118 Q132 110 125 108 L125 102 Q132 100 132 95 L132 85 Q130 78 122 75 L122 68 Q128 65 128 60 L128 30 Q125 18 115 15 L115 0 Z"/>

  <!-- Tuning pegs left -->
  <circle cx="62" cy="45" r="8"/>
  <circle cx="62" cy="75" r="8"/>
  <circle cx="62" cy="105" r="8"/>

  <!-- Tuning pegs right -->
  <circle cx="138" cy="45" r="8"/>
  <circle cx="138" cy="75" r="8"/>
  <circle cx="138" cy="105" r="8"/>

  <!-- Neck -->
  <rect x="88" y="145" width="24" height="100" rx="2"/>

  <!-- Frets -->
  <g fill="#1a1a2e" opacity="0.3">
    <rect x="88" y="160" width="24" height="1"/>
    <rect x="88" y="175" width="24" height="1"/>
    <rect x="88" y="190" width="24" height="1"/>
    <rect x="88" y="205" width="24" height="1"/>
    <rect x="88" y="220" width="24" height="1"/>
    <rect x="88" y="235" width="24" height="1"/>
  </g>

  <!-- Body - ES-335 wide double cutaway -->
  <path d="M100 245
           Q45 252 25 295 Q12 340 15 390 Q18 440 40 470 Q65 498 100 505 Q135 498 160 470 Q182 440 185 390 Q188 340 175 295 Q155 252 100 245 Z"/>

  <!-- Upper horn left -->
  <path d="M38 290 Q20 265 18 235 Q18 218 32 215 Q48 220 50 245 Q50 268 42 288 L38 290 Z"/>

  <!-- Upper horn right -->
  <path d="M162 290 Q180 265 182 235 Q182 218 168 215 Q152 220 150 245 Q150 268 158 288 L162 290 Z"/>

  <!-- F-holes -->
  <path d="M55 340 Q50 370 58 400 M52 355 L62 355 M52 385 L62 385" fill="none" stroke="#1a1a2e" stroke-width="4" stroke-linecap="round"/>
  <path d="M145 340 Q150 370 142 400 M138 355 L148 355 M138 385 L148 385" fill="none" stroke="#1a1a2e" stroke-width="4" stroke-linecap="round"/>

  <!-- Pickups -->
  <rect x="72" y="335" width="56" height="20" rx="3" fill="#1a1a2e" opacity="0.6"/>
  <rect x="72" y="400" width="56" height="20" rx="3" fill="#1a1a2e" opacity="0.6"/>

  <!-- Bridge/tailpiece -->
  <rect x="78" y="440" width="44" height="10" rx="2" fill="#1a1a2e" opacity="0.5"/>
  <rect x="82" y="458" width="36" height="18" rx="3" fill="#1a1a2e" opacity="0.5"/>

  <!-- Control knobs -->
  <circle cx="50" cy="450" r="10" fill="#1a1a2e" opacity="0.5"/>
  <circle cx="50" cy="478" r="10" fill="#1a1a2e" opacity="0.5"/>
  <circle cx="150" cy="450" r="10" fill="#1a1a2e" opacity="0.5"/>
  <circle cx="150" cy="478" r="10" fill="#1a1a2e" opacity="0.5"/>

  <!-- Toggle switch -->
  <ellipse cx="152" cy="305" rx="5" ry="8" fill="#1a1a2e" opacity="0.5"/>
</svg>
