<svg xmlns="http://www.w3.org/2000/svg" viewBox="0 0 200 500" fill="#f5a623">
  <!-- Gibson Explorer Silhouette -->

  <!-- Headstock -->
  <path d="M85 0 L85 15 Q75 18 72 30 L72 60 Q72 65 78 68 L78 75 Q70 78 68 85 L68 95 Q68 100 75 102 L75 108 Q68 110 66 118 L66 128 Q66 135 80 138 L80 145
           L120 145 L120 138 Q134 135 134 128 L134 118 Q132 110 125 108 L125 102 Q132 100 132 95 L132 85 Q130 78 122 75 L122 68 Q128 65 128 60 L128 30 Q125 18 115 15 L115 0 Z"/>

  <!-- Tuning pegs left -->
  <circle cx="62" cy="45" r="8"/>
  <circle cx="62" cy="75" r="8"/>
  <circle cx="62" cy="105" r="8"/>

  <!-- Tuning pegs right -->
  <circle cx="138" cy="45" r="8"/>
  <circle cx="138" cy="75" r="8"/>
  <circle cx="138" cy="105" r="8"/>

  <!-- Neck -->
  <rect x="88" y="145" width="24" height="100" rx="2"/>

  <!-- Frets -->
  <g fill="#1a1a2e" opacity="0.3">
    <rect x="88" y="160" width="24" height="1"/>
    <rect x="88" y="175" width="24" height="1"/>
    <rect x="88" y="190" width="24" height="1"/>
    <rect x="88" y="205" width="24" height="1"/>
    <rect x="88" y="220" width="24" height="1"/>
    <rect x="88" y="235" width="24" height="1"/>
  </g>

  <!-- Body - Explorer angular shape -->
  <path d="M100 245
           L25 260 Q10 265 8 280 L15 320 L40 400 Q55 440 85 460 L100 470
           L115 460 Q145 440 160 400 L175 340 Q185 300 175 275 L165 255
           L100 245 Z"/>

  <!-- Upper left point (Explorer's distinctive spike) -->
  <path d="M35 255 L8 210 Q2 195 15 192 L45 205 Q55 215 52 235 L35 255 Z"/>

  <!-- Pickups -->
  <rect x="72" y="310" width="56" height="20" rx="3" fill="#1a1a2e" opacity="0.6"/>
  <rect x="72" y="355" width="56" height="20" rx="3" fill="#1a1a2e" opacity="0.6"/>

  <!-- Bridge -->
  <rect x="80" y="395" width="40" height="12" rx="2" fill="#1a1a2e" opacity="0.5"/>

  <!-- Control knobs -->
  <circle cx="140" cy="410" r="10" fill="#1a1a2e" opacity="0.5"/>
  <circle cx="155" cy="380" r="10" fill="#1a1a2e" opacity="0.5"/>

  <!-- Toggle switch -->
  <ellipse cx="55" cy="340" rx="5" ry="8" fill="#1a1a2e" opacity="0.5"/>
</svg>
