<svg xmlns="http://www.w3.org/2000/svg" viewBox="0 0 200 500" fill="#f5a623">
  <!-- Gibson Flying V Silhouette -->

  <!-- Headstock -->
  <path d="M85 0 L85 15 Q75 18 72 30 L72 60 Q72 65 78 68 L78 75 Q70 78 68 85 L68 95 Q68 100 75 102 L75 108 Q68 110 66 118 L66 128 Q66 135 80 138 L80 145
           L120 145 L120 138 Q134 135 134 128 L134 118 Q132 110 125 108 L125 102 Q132 100 132 95 L132 85 Q130 78 122 75 L122 68 Q128 65 128 60 L128 30 Q125 18 115 15 L115 0 Z"/>

  <!-- Tuning pegs left -->
  <circle cx="62" cy="45" r="8"/>
  <circle cx="62" cy="75" r="8"/>
  <circle cx="62" cy="105" r="8"/>

  <!-- Tuning pegs right -->
  <circle cx="138" cy="45" r="8"/>
  <circle cx="138" cy="75" r="8"/>
  <circle cx="138" cy="105" r="8"/>

  <!-- Neck -->
  <rect x="88" y="145" width="24" height="90" rx="2"/>

  <!-- Frets -->
  <g fill="#1a1a2e" opacity="0.3">
    <rect x="88" y="160" width="24" height="1"/>
    <rect x="88" y="175" width="24" height="1"/>
    <rect x="88" y="190" width="24" height="1"/>
    <rect x="88" y="205" width="24" height="1"/>
    <rect x="88" y="220" width="24" height="1"/>
  </g>

  <!-- Body - Flying V shape -->
  <path d="M100 235
           L20 480 Q15 492 25 495 L55 490 L100 360
           L145 490 L175 495 Q185 492 180 480
           L100 235 Z"/>

  <!-- Pickups -->
  <rect x="80" y="280" width="40" height="18" rx="3" fill="#1a1a2e" opacity="0.6"/>
  <rect x="80" y="315" width="40" height="18" rx="3" fill="#1a1a2e" opacity="0.6"/>

  <!-- Bridge -->
  <rect x="85" y="345" width="30" height="10" rx="2" fill="#1a1a2e" opacity="0.5"/>

  <!-- Control knobs -->
  <circle cx="60" cy="420" r="10" fill="#1a1a2e" opacity="0.5"/>
  <circle cx="140" cy="420" r="10" fill="#1a1a2e" opacity="0.5"/>

  <!-- Toggle switch -->
  <ellipse cx="100" cy="265" rx="5" ry="8" fill="#1a1a2e" opacity="0.5"/>
</svg>
