<svg xmlns="http://www.w3.org/2000/svg" viewBox="0 0 100 220" fill="#f5a623">
  <!-- Jazz Bass body shape - offset, sleeker than P-bass -->
  <path d="M50 70
           Q30 74 22 95 Q18 115 18 140 Q20 165 28 185 Q38 202 52 208 Q66 202 76 185 Q84 165 85 140 Q86 115 80 95 Q72 74 50 70 Z" />
  <!-- Upper horn left (sharper) -->
  <path d="M26 92 Q15 78 14 62 Q15 52 24 52 Q32 56 32 70 Q30 82 26 92 Z"/>
  <!-- Upper horn right -->
  <path d="M76 88 Q84 76 82 65 Q80 58 74 60 Q70 68 72 80 L76 88 Z"/>
  <!-- Long bass neck -->
  <rect x="45" y="5" width="10" height="70" rx="1"/>
  <!-- Headstock (Jazz bass style) -->
  <path d="M44 5 L44 -20 Q44 -28 50 -32 L60 -28 Q64 -22 62 -10 L58 5 Z"/>
  <!-- Two J pickups -->
  <rect x="40" y="125" width="20" height="6" rx="1" fill="#1a1a2e" opacity="0.5"/>
  <rect x="40" y="160" width="20" height="6" rx="1" fill="#1a1a2e" opacity="0.5"/>
  <!-- Bridge -->
  <rect x="40" y="180" width="20" height="8" rx="1" fill="#1a1a2e" opacity="0.5"/>
</svg>
