<svg xmlns="http://www.w3.org/2000/svg" viewBox="0 0 200 500" fill="#f5a623">
  <!-- Les Paul Guitar Silhouette - single cutaway -->

  <!-- Headstock (Gibson style angled back) -->
  <path d="M85 0 L85 15 Q75 18 72 30 L72 60 Q72 65 78 68 L78 75 Q70 78 68 85 L68 95 Q68 100 75 102 L75 108 Q68 110 66 118 L66 128 Q66 135 80 138 L80 145
           L120 145 L120 138 Q134 135 134 128 L134 118 Q132 110 125 108 L125 102 Q132 100 132 95 L132 85 Q130 78 122 75 L122 68 Q128 65 128 60 L128 30 Q125 18 115 15 L115 0 Z"/>

  <!-- Tuning pegs left -->
  <circle cx="62" cy="45" r="8"/>
  <circle cx="62" cy="75" r="8"/>
  <circle cx="62" cy="105" r="8"/>

  <!-- Tuning pegs right -->
  <circle cx="138" cy="45" r="8"/>
  <circle cx="138" cy="75" r="8"/>
  <circle cx="138" cy="105" r="8"/>

  <!-- Neck -->
  <rect x="88" y="145" width="24" height="115" rx="2"/>

  <!-- Frets -->
  <g fill="#1a1a2e" opacity="0.3">
    <rect x="88" y="160" width="24" height="1"/>
    <rect x="88" y="175" width="24" height="1"/>
    <rect x="88" y="190" width="24" height="1"/>
    <rect x="88" y="205" width="24" height="1"/>
    <rect x="88" y="220" width="24" height="1"/>
    <rect x="88" y="235" width="24" height="1"/>
    <rect x="88" y="250" width="24" height="1"/>
  </g>

  <!-- Body - Les Paul single cutaway, curved -->
  <path d="M100 260
           Q55 265 40 300 Q28 340 30 385 Q32 430 45 460 Q60 485 100 495 Q140 485 155 460 Q168 430 170 385 Q172 340 160 300 Q145 265 100 260 Z"/>

  <!-- Single cutaway (carve out) -->
  <path d="M58 290 Q75 305 78 330 Q78 345 70 355 Q60 345 55 325 Q52 305 58 290 Z" fill="#1a1a2e"/>

  <!-- Pickups -->
  <rect x="70" y="350" width="55" height="22" rx="4" fill="#1a1a2e" opacity="0.6"/>
  <rect x="70" y="395" width="55" height="22" rx="4" fill="#1a1a2e" opacity="0.6"/>

  <!-- Pickup rings -->
  <rect x="65" y="345" width="65" height="32" rx="4" fill="none" stroke="#1a1a2e" stroke-width="2" opacity="0.4"/>
  <rect x="65" y="390" width="65" height="32" rx="4" fill="none" stroke="#1a1a2e" stroke-width="2" opacity="0.4"/>

  <!-- Bridge/tailpiece -->
  <rect x="75" y="440" width="50" height="10" rx="2" fill="#1a1a2e" opacity="0.5"/>
  <rect x="80" y="455" width="40" height="15" rx="3" fill="#1a1a2e" opacity="0.5"/>

  <!-- Control knobs (2 vol, 2 tone) -->
  <circle cx="55" cy="440" r="12" fill="#1a1a2e" opacity="0.5"/>
  <circle cx="55" cy="470" r="12" fill="#1a1a2e" opacity="0.5"/>
  <circle cx="145" cy="440" r="12" fill="#1a1a2e" opacity="0.5"/>
  <circle cx="145" cy="470" r="12" fill="#1a1a2e" opacity="0.5"/>

  <!-- Toggle switch -->
  <ellipse cx="150" cy="320" rx="6" ry="10" fill="#1a1a2e" opacity="0.5"/>
</svg>
