<svg xmlns="http://www.w3.org/2000/svg" viewBox="0 0 200 500" fill="#f5a623">
  <!-- Fender Stratocaster Silhouette -->

  <!-- Headstock (Fender style - inline tuners) -->
  <path d="M92 0 L92 120 L108 120 L108 10 L125 8 Q135 10 138 25 L138 50 L145 50 L145 72 L138 72 L138 95 L145 95 L145 117 L138 117 L138 125 L108 125 L108 120"/>

  <!-- Tuning pegs (inline on one side) -->
  <circle cx="148" cy="35" r="7"/>
  <circle cx="148" cy="60" r="7"/>
  <circle cx="148" cy="85" r="7"/>
  <circle cx="148" cy="108" r="7"/>
  <circle cx="135" cy="118" r="7"/>
  <circle cx="122" cy="122" r="7"/>

  <!-- Neck -->
  <rect x="92" y="120" width="16" height="120" rx="2"/>

  <!-- Frets -->
  <g fill="#1a1a2e" opacity="0.3">
    <rect x="92" y="135" width="16" height="1"/>
    <rect x="92" y="150" width="16" height="1"/>
    <rect x="92" y="165" width="16" height="1"/>
    <rect x="92" y="180" width="16" height="1"/>
    <rect x="92" y="195" width="16" height="1"/>
    <rect x="92" y="210" width="16" height="1"/>
    <rect x="92" y="225" width="16" height="1"/>
  </g>

  <!-- Body - Strat contoured double cutaway -->
  <path d="M100 240
           Q55 245 38 280 Q25 315 28 360 Q30 405 45 445 Q62 480 100 490 Q138 480 155 445 Q170 405 172 360 Q175 315 162 280 Q145 245 100 240 Z"/>

  <!-- Upper horn left (deep cutaway) -->
  <path d="M45 275 Q25 250 22 218 Q22 200 38 198 Q55 202 55 228 Q54 255 48 272 L45 275 Z"/>

  <!-- Upper horn right -->
  <path d="M155 272 Q168 252 168 228 Q168 210 155 208 Q142 212 144 235 Q146 258 152 270 L155 272 Z"/>

  <!-- Pickguard shape (suggestion) -->
  <path d="M48 290 Q42 330 45 380 L50 440 Q55 455 75 460 L130 455 Q140 450 142 440 L145 400 Q148 360 145 320 Q142 290 130 280 L100 275 Q70 278 48 290 Z" fill="#1a1a2e" opacity="0.15"/>

  <!-- Pickups (3 single coils) -->
  <rect x="75" y="320" width="50" height="8" rx="2" fill="#1a1a2e" opacity="0.6"/>
  <rect x="75" y="355" width="50" height="8" rx="2" fill="#1a1a2e" opacity="0.6"/>
  <rect x="75" y="390" width="50" height="8" rx="2" fill="#1a1a2e" opacity="0.6"/>

  <!-- Tremolo bridge -->
  <rect x="72" y="420" width="56" height="25" rx="3" fill="#1a1a2e" opacity="0.5"/>

  <!-- Control knobs -->
  <circle cx="135" cy="430" r="10" fill="#1a1a2e" opacity="0.5"/>
  <circle cx="145" cy="455" r="10" fill="#1a1a2e" opacity="0.5"/>
  <circle cx="130" cy="470" r="10" fill="#1a1a2e" opacity="0.5"/>

  <!-- 5-way switch -->
  <rect x="55" cy="400" width="8" height="30" rx="2" fill="#1a1a2e" opacity="0.4"/>

  <!-- Output jack (on body edge) -->
  <circle cx="165" cy="400" r="6" fill="#1a1a2e" opacity="0.5"/>
</svg>
